<?xml version="1.0" standalone="no"?>
<!DOCTYPE svg PUBLIC "-//W3C//DTD SVG 20010904//EN"
 "http://www.w3.org/TR/2001/REC-SVG-20010904/DTD/svg10.dtd">
<svg version="1.0" xmlns="http://www.w3.org/2000/svg"
 width="549.000000pt" height="549.000000pt" viewBox="0 0 549.000000 549.000000"
 preserveAspectRatio="xMidYMid meet">
<metadata>
Created by potrace 1.11, written by Peter Selinger 2001-2013
</metadata>
<g transform="translate(0.000000,549.000000) scale(0.100000,-0.100000)"
fill="#000000" stroke="none">
<path d="M802 5418 c-52 -176 -73 -289 -77 -418 -5 -158 19 -262 90 -383 l43
-72 -34 -40 c-154 -181 -328 -465 -414 -675 -12 -30 -28 -68 -35 -85 -72 -171
-145 -490 -163 -710 -9 -106 -8 -390 1 -490 24 -251 86 -505 184 -749 41 -102
164 -348 183 -366 25 -24 92 -152 111 -211 12 -41 27 -80 32 -86 5 -7 35 -27
66 -45 32 -18 116 -89 196 -167 357 -347 750 -563 1219 -672 115 -26 143 -37
243 -94 62 -36 119 -65 126 -65 8 0 59 21 113 46 55 25 117 48 139 49 22 2 78
6 125 10 127 10 212 22 395 59 121 24 386 122 539 198 173 87 402 240 536 358
211 186 410 430 548 670 125 219 208 423 271 674 17 66 46 150 66 188 l35 68
-23 9 -23 9 12 108 c10 103 11 485 1 530 -3 11 -8 45 -11 75 -3 30 -8 64 -10
75 -2 12 -7 39 -10 60 -18 111 -91 373 -131 469 -7 17 -23 55 -35 85 -100 246
-325 594 -499 770 -75 76 -74 75 -58 107 42 82 61 174 61 298 -1 113 -22 228
-76 413 l-21 72 -1847 0 -1847 0 -21 -72z"/>
</g>
</svg>
